<?xml version="1.0" encoding="UTF-8" standalone="no"?>
<svg
   xmlns:dc="http://purl.org/dc/elements/1.1/"
   xmlns:cc="http://creativecommons.org/ns#"
   xmlns:rdf="http://www.w3.org/1999/02/22-rdf-syntax-ns#"
   xmlns:svg="http://www.w3.org/2000/svg"
   xmlns="http://www.w3.org/2000/svg"
   viewBox="0 0 1160.7324 1160.7344"
   height="1160.7344"
   width="1160.7324"
   id="svg2"
   version="1.1">
  <title
     id="title877">Walkable logo</title>
  <metadata
     id="metadata8">
    <rdf:RDF>
      <cc:Work
         rdf:about="">
        <dc:format>image/svg+xml</dc:format>
        <dc:type
           rdf:resource="http://purl.org/dc/dcmitype/StillImage" />
        <dc:title>Walkable logo</dc:title>
        <cc:license
           rdf:resource="http://creativecommons.org/licenses/by-sa/4.0/" />
        <dc:creator>
          <cc:Agent>
            <dc:title>Hoang Minh Thang</dc:title>
          </cc:Agent>
        </dc:creator>
        <dc:date>2018-03-20</dc:date>
      </cc:Work>
      <cc:License
         rdf:about="http://creativecommons.org/licenses/by-sa/4.0/">
        <cc:permits
           rdf:resource="http://creativecommons.org/ns#Reproduction" />
        <cc:permits
           rdf:resource="http://creativecommons.org/ns#Distribution" />
        <cc:requires
           rdf:resource="http://creativecommons.org/ns#Notice" />
        <cc:requires
           rdf:resource="http://creativecommons.org/ns#Attribution" />
        <cc:permits
           rdf:resource="http://creativecommons.org/ns#DerivativeWorks" />
        <cc:requires
           rdf:resource="http://creativecommons.org/ns#ShareAlike" />
      </cc:License>
    </rdf:RDF>
  </metadata>
  <defs
     id="defs6" />
  <g
     transform="translate(-104.2168,-31.994141)"
     style="display:inline"
     id="layer3">
    <path
       id="path875"
       d="m 316.71078,1061.2461 c 103.28368,84.6495 233.16414,131.4825 367.8732,131.4824 64.09365,-2e-4 127.09418,-10.6024 186.65694,-30.8354 l -2.1549,-7.717 c -104.39999,25.881 -143.90173,-3.0914 -148.88875,-28.5433 19.89982,-28.7656 63.23856,-5.6811 89.20117,-28.416 27.19783,-18.8309 68.75859,-35.9493 75.92578,-70.2578 -8.58706,-32.58826 -25.53541,-62.40005 -42.15625,-91.59767 C 815.72055,888.86557 756.11034,777.4831 707.20312,685.14062 531.42827,917.36784 473.04438,1045.6084 473.69141,1065.6172 c -1.84473,37.5277 -24.12387,69.6284 -56.85938,49.3926 -35.90252,-13.8346 -135.60346,-97.2228 -135.60346,-97.2228 l -7.02624,4.956 z"
       style="display:inline;opacity:1;fill:#888a85;stroke:none;stroke-width:18.28155899;stroke-miterlimit:4;stroke-dasharray:none;stroke-opacity:1" />
    <path
       id="path839"
       d="m 281.22857,1017.787 c -23.87048,-23.04324 -43.15394,-50.86922 -56.26373,-81.20106 -0.72489,-39.87395 32.12836,-44.09748 42.1836,-10.33399 27.41974,22.4321 33.84898,23.22423 95.17383,49.21485 37.60228,-1.11111 56.68359,-16.10547 56.68359,-16.10547 0,0 98.42645,-187.30114 224.88867,-394.34766 -3.24271,-6.19215 -10.87305,-20.73242 -10.87305,-20.73242 L 470.81055,191.55078 c 0,0 -16.36252,-30.23989 -29.45703,-37.26562 -23.64549,-12.68676 -27.60297,-28.23991 -24.85157,-34.31836 3.47627,-7.67986 12.841,-17.22539 29.64857,-25.146223 l -7.66191,-8.066998 C 378.01787,115.06545 322.32041,153.86158 274.20232,201.97967 165.36234,310.81965 104.21672,458.43836 104.2168,612.36133 c -8e-5,153.92297 61.14555,301.54168 169.98553,410.38167 z"
       style="display:inline;opacity:1;fill:#63b132;stroke:none;stroke-width:18.28155899;stroke-miterlimit:4;stroke-dasharray:none;stroke-opacity:1" />
    <path
       id="path1212"
       d="m 892.1846,1154.3276 c 75.36486,-28.8697 144.6106,-73.416 202.7798,-131.5853 C 1203.804,913.90247 1264.9493,766.28396 1264.9492,612.36133 1264.9493,458.4387 1203.8039,310.82028 1094.9644,201.98036 986.12482,93.140439 838.50661,31.994581 684.58398,31.994141 603.80117,31.994099 524.75482,48.836188 452.13942,80.575886 l -13.65081,6.177693 7.66178,8.066734 c 0,0 56.23787,-15.735891 87.29883,-15.593751 2.10895,0.0097 17.91322,8.025747 25.53516,19.109376 9.44948,13.741222 28.99017,65.745832 35.52734,79.869142 38.68138,83.56969 122.37258,282.49493 141.81055,332.04101 121.15191,290.98216 219.16827,441.79801 245.15234,470.92188 28.81609,18.70519 70.06499,38.04213 43.07419,77.35543 -46.93111,36.4438 -155.46278,95.6527 -155.46278,95.6527 l 2.1549,7.717 z"
       style="display:inline;opacity:1;fill:#5881d8;stroke:none;stroke-width:18.28155899;stroke-miterlimit:4;stroke-dasharray:none;stroke-opacity:1" />
  </g>
  <g
     id="g845"
     style="display:inline"
     transform="translate(-104.2168,-31.994141)">
    <path
       transform="translate(104.2168,31.994141)"
       id="path869"
       d="m 341.93359,62.826172 c -16.80757,7.920833 -26.17216,17.466624 -29.64843,25.146484 -2.7514,6.07845 1.20607,21.631604 24.85156,34.318364 13.09451,7.02573 29.45703,37.26562 29.45703,37.26562 l 162.21094,352.73047 c 0,0 7.63033,14.54027 10.87304,20.73242 -126.46222,207.04652 -224.88867,394.34766 -224.88867,394.34766 0,0 -19.08131,14.99436 -56.68359,16.10547 -61.32485,-25.99062 -67.75409,-26.78275 -95.17383,-49.21485 -10.05524,-33.76349 -42.90848,-29.53996 -42.18359,10.33399 13.10979,30.33184 32.39319,58.15793 56.26367,81.20117 13.27022,12.8104 27.95812,24.14253 43.79101,33.60543 31.38057,20.9847 55.90998,49.7826 91.8125,63.6172 32.73551,20.2358 55.01465,-11.8649 56.85938,-49.3926 -0.64703,-20.0088 57.73687,-148.2493 233.51172,-380.47652 48.90722,92.34248 108.51742,203.72495 135.96484,250.22071 16.62084,29.19762 33.56919,59.00939 42.15625,91.59765 -7.16719,34.30846 -48.72795,51.42696 -75.92578,70.25786 -25.96261,22.7349 -69.30135,-0.3496 -89.20117,28.416 4.98702,25.4519 44.48868,54.4239 148.88867,28.5429 l 18.73242,-8.5664 c 32.91905,-16.9981 89.79936,-50.6421 136.73047,-87.0859 C 947.32283,987.216 906.0739,967.87902 877.25781,949.17383 851.27374,920.04996 753.25738,769.23411 632.10547,478.25195 612.6675,428.70587 528.9763,229.78063 490.29492,146.21094 483.75775,132.08763 464.21706,80.083019 454.76758,66.341797 447.14564,55.258168 431.34137,47.242122 429.23242,47.232422 c -31.06096,-0.14214 -55.1004,3.958893 -73.1543,9.972656 z"
       style="opacity:1;fill:#ffffff;stroke:none;stroke-width:17.29999924;stroke-miterlimit:4;stroke-dasharray:none;stroke-opacity:1" />
  </g>
</svg>
